<svg width="177" height="140" viewBox="0 0 111 88" version="1.1" xmlns="http://www.w3.org/2000/svg" xmlns:xlink="http://www.w3.org/1999/xlink" xml:space="preserve" style="fill-rule:evenodd;clip-rule:evenodd;stroke-linejoin:round;stroke-miterlimit:1.41421;"><title>Masaryk University</title><rect id="Artboard1" x="0" y="0" width="110.603" height="87.405" style="fill:none;"></rect><g id="Vrstva-1"><rect x="0" y="0" width="34.016" height="85.041" style="fill:#002776;fill-rule:nonzero;"></rect><path d="M26.63,48.561c-0.99,0 -1.792,0.791 -1.792,1.768l0,15.994c0,1.451 -0.538,2.758 -1.458,3.813l0,-19.838c0,-0.854 -0.636,-1.58 -1.496,-1.7c-0.853,-0.124 -1.709,0.374 -1.917,1.219c-2.93,11.883 -2.958,11.975 -2.958,11.975c0,0 -0.019,-0.092 -2.964,-11.977c-0.211,-0.843 -1.059,-1.342 -1.915,-1.217c-0.859,0.12 -1.492,0.846 -1.492,1.7l0,19.837c-0.922,-1.055 -1.465,-2.362 -1.465,-3.813l0,-15.994c0,-0.977 -0.8,-1.768 -1.789,-1.768c-0.99,0 -1.714,0.791 -1.714,1.768l0,15.994c0,5.627 5.003,9.56 11.337,9.56c6.334,-0.001 11.338,-3.933 11.338,-9.56l0,-15.994c0,-0.977 -0.726,-1.768 -1.715,-1.768m-12.664,23.737l0,-10.106c0.008,0.045 0.145,0.643 2.075,8.071c0.093,0.355 0.388,0.74 0.972,0.74c0.604,0 0.867,-0.338 0.975,-0.74c0.592,-2.293 2.058,-8.043 2.058,-8.043l0,10.078c-0.935,0.314 -1.957,0.486 -3.039,0.486c-1.081,0 -2.107,-0.172 -3.041,-0.486" style="fill:#fff;fill-rule:nonzero;"></path><g transform="matrix(0.24,0,0,0.24,-4.24585,-13.3665)"><path d="M211.903,259.168l6.55,0l8.4,27.646l0.1,0l9.6,-27.646l6.55,0l5.1,34.594l-6.5,0.7l-2.6,-27.295l-0.1,0l-8.8,26.595l-6.6,0l-7.95,-26.595l-0.1,0l-3.6,27.295l-6.15,-0.7l6.1,-34.594Z" style="fill:#002776;fill-rule:nonzero;"></path><path d="M267.653,265.868l-0.1,0l-4.35,13.5l8.45,0l-4,-13.5Zm-10.2,28.594l-5.95,-1.8l13.3,-33.494l5.9,0l12.35,33.494l-6.25,1.8l-3.4,-9.9l-12.05,0l-3.9,9.9Z" style="fill:#002776;fill-rule:nonzero;"></path><path d="M288.354,286.918c1.598,1.15 4.146,2.35 6.098,2.35c3.603,0 5.554,-2.2 5.554,-5.001c0,-6.851 -14.2,-4.001 -14.2,-15.754c0,-5.65 4.596,-10.045 11.548,-10.045c3.452,0 6.749,1.149 9.746,2.897l-2.698,4.598c-2.148,-1.151 -3.996,-2.301 -6.547,-2.301c-2.953,0 -5.655,1.601 -5.655,4.651c0,6.752 14.5,4.651 14.5,15.704c0,5.901 -4.795,10.445 -11.447,10.445c-3.402,0 -6.449,-0.899 -9.397,-2.647l2.498,-4.897Z" style="fill:#002776;fill-rule:nonzero;"></path><path d="M326.003,265.868l-0.1,0l-4.35,13.5l8.45,0l-4,-13.5Zm-10.2,28.594l-5.95,-1.8l13.3,-33.494l5.9,0l12.35,33.494l-6.25,1.8l-3.4,-9.9l-12.05,0l-3.9,9.9Z" style="fill:#002776;fill-rule:nonzero;"></path><path d="M356.753,274.712c1.851,0 5.703,-0.8 5.703,-5.35c0,-3.35 -2.601,-5 -5.853,-5l-3.703,0l-0.1,10.35l3.953,0Zm-10.297,-15.544l10.947,0c8.4,0 11.747,4.545 11.747,9.994c0,4.4 -2.647,7.55 -6.694,9l9.844,12.9l-5.697,3.4l-9.6,-13.35c-0.55,-0.8 -1.351,-1.2 -2.301,-1.2l-2.002,0l-0.05,13.85l-6.544,0l0.35,-34.594Z" style="fill:#002776;fill-rule:nonzero;"></path><path d="M383.706,279.415l-11.45,-17.647l5.85,-3.3l9.047,14.798l9.397,-14.798l5.65,3.25l-11.8,17.497l-0.2,14.547l-6.694,0l0.2,-14.347Z" style="fill:#002776;fill-rule:nonzero;"></path><path d="M406.556,259.168l6.394,0l-0.1,16.147l0.25,0l14.15,-16.847l4.75,3.8l-12.35,13.647l12.2,14.848l-5.2,3.699l-13.7,-17.397l-0.1,0l-0.15,16.697l-6.394,0l0.25,-34.594Z" style="fill:#002776;fill-rule:nonzero;"></path><path d="M235.5,339.268c-0.15,8.499 -5.994,13.194 -14.247,13.194c-8.202,0 -13.947,-4.545 -13.947,-13.544c0,-7.25 0.15,-14.5 0.2,-21.75l6.394,0c-0.05,7.4 -0.2,14.7 -0.2,22.1c0,4.85 3.402,7.7 7.653,7.7c5.052,0 7.703,-3.3 7.753,-8.05l0.2,-21.75l6.394,0l-0.2,22.1Z" style="fill:#002776;fill-rule:nonzero;"></path><path d="M243.606,318.268l5.944,-1.8l16.156,26.496l0.1,0l-0.4,-25.796l6.394,0l-0.3,33.494l-6.444,1.8l-15.756,-26.345l-0.099,0.1l0.499,25.545l-6.394,0l0.3,-33.494Z" style="fill:#002776;fill-rule:nonzero;"></path><path d="M279.506,317.168l6.394,0l-0.3,34.594l-6.394,0l0.3,-34.594Z" style="fill:#002776;fill-rule:nonzero;"></path><path d="M290.403,318.518l6.45,-2.05l8.85,27.196l0.1,0l9.95,-27.196l6.2,2.05l-13.2,33.244l-6,0l-12.35,-33.244Z" style="fill:#002776;fill-rule:nonzero;"></path><path d="M327.006,317.168l18.494,0l0,5.494l-12.1,0l-0.1,8.906l12,0l0,5.194l-12.05,0l-0.05,9.506l12.3,0l0,5.494l-18.844,0l0.35,-34.594Z" style="fill:#002776;fill-rule:nonzero;"></path><path d="M362.303,332.712c1.851,0 5.703,-0.8 5.703,-5.35c0,-3.35 -2.601,-5 -5.853,-5l-3.703,0l-0.1,10.35l3.953,0Zm-10.297,-15.544l10.947,0c8.4,0 11.747,4.545 11.747,9.994c0,4.4 -2.647,7.55 -6.694,9l9.844,12.9l-5.697,3.4l-9.6,-13.35c-0.55,-0.8 -1.351,-1.2 -2.301,-1.2l-2.002,0l-0.05,13.85l-6.544,0l0.35,-34.594Z" style="fill:#002776;fill-rule:nonzero;"></path><path d="M382.804,344.918c1.598,1.15 4.146,2.35 6.098,2.35c3.603,0 5.554,-2.2 5.554,-5.001c0,-6.851 -14.2,-4.001 -14.2,-15.754c0,-5.65 4.596,-10.045 11.548,-10.045c3.452,0 6.749,1.149 9.746,2.897l-2.698,4.598c-2.148,-1.151 -3.996,-2.301 -6.547,-2.301c-2.953,0 -5.655,1.601 -5.655,4.651c0,6.752 14.5,4.651 14.5,15.704c0,5.901 -4.795,10.445 -11.447,10.445c-3.402,0 -6.449,-0.899 -9.397,-2.647l2.498,-4.897Z" style="fill:#002776;fill-rule:nonzero;"></path><path d="M407.306,317.168l6.394,0l-0.3,34.594l-6.394,0l0.3,-34.594Z" style="fill:#002776;fill-rule:nonzero;"></path><path d="M428.056,322.662l-9.7,0l0.05,-5.494l25.644,0l-0.05,5.494l-9.55,0l-0.25,29.1l-6.394,0l0.25,-29.1Z" style="fill:#002776;fill-rule:nonzero;"></path><path d="M456.856,337.415l-11.45,-17.647l5.85,-3.3l9.047,14.798l9.397,-14.798l5.65,3.25l-11.8,17.497l-0.2,14.547l-6.694,0l0.2,-14.347Z" style="fill:#002776;fill-rule:nonzero;"></path></g></g></svg>